HIERARCHY
ROOT Hips
{
    OFFSET   0.000000   0.000000   0.000000
    CHANNELS 6 Xposition Yposition Zposition Zrotation Xrotation Yrotation
    JOINT Chest
    {
        OFFSET   0.000000   8.007240   0.000000
        CHANNELS 3 Zrotation Xrotation Yrotation
        JOINT Chest2
        {
            OFFSET   0.000000  22.077100   0.000000
            CHANNELS 3 Zrotation Xrotation Yrotation
            JOINT Neck
            {
                OFFSET   0.000000  23.254800   0.000000
                CHANNELS 3 Zrotation Xrotation Yrotation
                JOINT Head
                {
                    OFFSET   0.000000  14.370000   1.956600
                    CHANNELS 3 Zrotation Xrotation Yrotation
                    End Site
                    {
                        OFFSET   0.000000  19.566000   0.000000
                    }
                }
            }
            JOINT LeftCollar
            {
                OFFSET   3.911900  19.017000  -0.467064
                CHANNELS 3 Zrotation Xrotation Yrotation
                JOINT LeftShoulder
                {
                    OFFSET  10.383700   0.000000   0.000000
                    CHANNELS 3 Zrotation Xrotation Yrotation
                    JOINT LeftElbow
                    {
                        OFFSET  26.662100   0.001476   0.000517
                        CHANNELS 3 Zrotation Xrotation Yrotation
                        JOINT LeftWrist
                        {
                            OFFSET  28.869000  -0.000025  -0.000106
                            CHANNELS 3 Zrotation Xrotation Yrotation
                            JOINT LeftFinger0
                            {
                                OFFSET   2.044660  -2.323460   3.252850
                                CHANNELS 3 Zrotation Xrotation Yrotation
                                JOINT LeftFinger01
                                {
                                    OFFSET   3.088130   0.000000   0.000000
                                    CHANNELS 3 Zrotation Xrotation Yrotation
                                    JOINT LeftFinger02
                                    {
                                        OFFSET   2.639460   0.000000   0.000000
                                        CHANNELS 3 Zrotation Xrotation Yrotation
                                        End Site
                                        {
                                            OFFSET   2.582190   0.000000   0.000000
                                        }
                                    }
                                }
                            }
                            JOINT LeftFinger1
                            {
                                OFFSET   8.364480   0.000000   3.252850
                                CHANNELS 3 Zrotation Xrotation Yrotation
                                JOINT LeftFinger11
                                {
                                    OFFSET   4.646930   0.000000   0.000000
                                    CHANNELS 3 Zrotation Xrotation Yrotation
                                    JOINT LeftFinger12
                                    {
                                        OFFSET   2.323460   0.000000   0.000000
                                        CHANNELS 3 Zrotation Xrotation Yrotation
                                        End Site
                                        {
                                            OFFSET   2.273050   0.000000   0.000000
                                        }
                                    }
                                }
                            }
                            JOINT LeftFinger2
                            {
                                OFFSET   8.364490   0.000015   1.078090
                                CHANNELS 3 Zrotation Xrotation Yrotation
                                JOINT LeftFinger21
                                {
                                    OFFSET   5.111620   0.000000   0.000000
                                    CHANNELS 3 Zrotation Xrotation Yrotation
                                    JOINT LeftFinger22
                                    {
                                        OFFSET   2.788160   0.000016   0.000000
                                        CHANNELS 3 Zrotation Xrotation Yrotation
                                        End Site
                                        {
                                            OFFSET   2.727660   0.000000   0.000000
                                        }
                                    }
                                }
                            }
                            JOINT LeftFinger3
                            {
                                OFFSET   7.899780   0.000017  -1.078090
                                CHANNELS 3 Zrotation Xrotation Yrotation
                                JOINT LeftFinger31
                                {
                                    OFFSET   4.646930   0.000000   0.000000
                                    CHANNELS 3 Zrotation Xrotation Yrotation
                                    JOINT LeftFinger32
                                    {
                                        OFFSET   2.323470   0.000000   0.000000
                                        CHANNELS 3 Zrotation Xrotation Yrotation
                                        End Site
                                        {
                                            OFFSET   2.273050   0.000000   0.000000
                                        }
                                    }
                                }
                            }
                            JOINT LeftFinger4
                            {
                                OFFSET   7.435090   0.000000  -3.252850
                                CHANNELS 3 Zrotation Xrotation Yrotation
                                JOINT LeftFinger41
                                {
                                    OFFSET   3.717550   0.000000   0.000000
                                    CHANNELS 3 Zrotation Xrotation Yrotation
                                    JOINT LeftFinger42
                                    {
                                        OFFSET   1.858770   0.000000   0.000000
                                        CHANNELS 3 Zrotation Xrotation Yrotation
                                        End Site
                                        {
                                            OFFSET   1.818440   0.000000   0.000000
                                        }
                                    }
                                }
                            }
                        }
                    }
                }
            }
            JOINT RightCollar
            {
                OFFSET  -3.911900  19.017000  -0.467063
                CHANNELS 3 Zrotation Xrotation Yrotation
                JOINT RightShoulder
                {
                    OFFSET -10.383700   0.000019   0.000000
                    CHANNELS 3 Zrotation Xrotation Yrotation
                    JOINT RightElbow
                    {
                        OFFSET -26.662100   0.001175   0.000102
                        CHANNELS 3 Zrotation Xrotation Yrotation
                        JOINT RightWrist
                        {
                            OFFSET -28.869000   0.000016  -0.000079
                            CHANNELS 3 Zrotation Xrotation Yrotation
                            JOINT RightFinger0
                            {
                                OFFSET  -2.044660  -2.323490   3.252850
                                CHANNELS 3 Zrotation Xrotation Yrotation
                                JOINT RightFinger01
                                {
                                    OFFSET  -3.088140   0.000000   0.000000
                                    CHANNELS 3 Zrotation Xrotation Yrotation
                                    JOINT RightFinger02
                                    {
                                        OFFSET  -2.639460   0.000000   0.000000
                                        CHANNELS 3 Zrotation Xrotation Yrotation
                                        End Site
                                        {
                                            OFFSET  -2.582190   0.000000   0.000000
                                        }
                                    }
                                }
                            }
                            JOINT RightFinger1
                            {
                                OFFSET  -8.364480   0.000000   3.252850
                                CHANNELS 3 Zrotation Xrotation Yrotation
                                JOINT RightFinger11
                                {
                                    OFFSET  -4.646930   0.000000   0.000000
                                    CHANNELS 3 Zrotation Xrotation Yrotation
                                    JOINT RightFinger12
                                    {
                                        OFFSET  -2.323470   0.000000   0.000000
                                        CHANNELS 3 Zrotation Xrotation Yrotation
                                        End Site
                                        {
                                            OFFSET  -2.273050   0.000000   0.000000
                                        }
                                    }
                                }
                            }
                            JOINT RightFinger2
                            {
                                OFFSET  -8.364480   0.000000   1.078090
                                CHANNELS 3 Zrotation Xrotation Yrotation
                                JOINT RightFinger21
                                {
                                    OFFSET  -5.111620   0.000000   0.000000
                                    CHANNELS 3 Zrotation Xrotation Yrotation
                                    JOINT RightFinger22
                                    {
                                        OFFSET  -2.788160   0.000000   0.000000
                                        CHANNELS 3 Zrotation Xrotation Yrotation
                                        End Site
                                        {
                                            OFFSET  -2.727660   0.000000   0.000000
                                        }
                                    }
                                }
                            }
                            JOINT RightFinger3
                            {
                                OFFSET  -7.899780   0.000000  -1.078090
                                CHANNELS 3 Zrotation Xrotation Yrotation
                                JOINT RightFinger31
                                {
                                    OFFSET  -4.646930   0.000000   0.000000
                                    CHANNELS 3 Zrotation Xrotation Yrotation
                                    JOINT RightFinger32
                                    {
                                        OFFSET  -2.323470   0.000000   0.000000
                                        CHANNELS 3 Zrotation Xrotation Yrotation
                                        End Site
                                        {
                                            OFFSET  -2.273050   0.000000   0.000000
                                        }
                                    }
                                }
                            }
                            JOINT RightFinger4
                            {
                                OFFSET  -7.435090   0.000000  -3.252850
                                CHANNELS 3 Zrotation Xrotation Yrotation
                                JOINT RightFinger41
                                {
                                    OFFSET  -3.717550   0.000000   0.000000
                                    CHANNELS 3 Zrotation Xrotation Yrotation
                                    JOINT RightFinger42
                                    {
                                        OFFSET  -1.858770   0.000000   0.000000
                                        CHANNELS 3 Zrotation Xrotation Yrotation
                                        End Site
                                        {
                                            OFFSET  -1.818440   0.000000   0.000000
                                        }
                                    }
                                }
                            }
                        }
                    }
                }
            }
        }
    }
    JOINT LeftHip
    {
        OFFSET   9.783040   0.000000   0.000000
        CHANNELS 3 Zrotation Xrotation Yrotation
        JOINT LeftKnee
        {
            OFFSET   0.000032 -41.789100  -0.002222
            CHANNELS 3 Zrotation Xrotation Yrotation
            JOINT LeftAnkle
            {
                OFFSET   0.000087 -41.133200  -0.000135
                CHANNELS 3 Zrotation Xrotation Yrotation
                JOINT LeftToe
                {
                    OFFSET   0.000000  -6.358960  14.674500
                    CHANNELS 3 Zrotation Xrotation Yrotation
                    End Site
                    {
                        OFFSET   0.000000   0.000000   3.913200
                    }
                }
            }
        }
    }
    JOINT RightHip
    {
        OFFSET  -9.783040   0.000000   0.000000
        CHANNELS 3 Zrotation Xrotation Yrotation
        JOINT RightKnee
        {
            OFFSET   0.000047 -41.789100  -0.000896
            CHANNELS 3 Zrotation Xrotation Yrotation
            JOINT RightAnkle
            {
                OFFSET  -0.000117 -41.133300  -0.000248
                CHANNELS 3 Zrotation Xrotation Yrotation
                JOINT RightToe
                {
                    OFFSET   0.000000  -6.358970  14.674500
                    CHANNELS 3 Zrotation Xrotation Yrotation
                    End Site
                    {
                        OFFSET   0.000000   0.000000   3.913200
                    }
                }
            }
        }
    }
}
MOTION
Frames: 4
Frame Time:   0.016667
 -0.687451  89.892900  -4.140670  -1.328240 -13.280900  -4.109820   0.243330   7.383650  -0.451578   0.552894  14.765100  -0.947040  -0.014630   3.449790   0.006578  -0.021584   6.995610   9.205490  -4.666080   1.099110   4.038920 -57.750100  26.869600 -32.812200  26.246700 -13.692600 -87.621700  22.982900  41.104100 -18.559700  42.661300  41.179200 -82.668200 -28.234700   0.006514   0.003614  -9.117330   0.000161   0.007864 -36.682400  11.060400 -14.656300 -31.188700   0.017892   0.033125 -22.029800   0.007076   0.027465 -29.270700   5.157960  -9.120900 -43.105400   0.004169   0.026114 -28.708200   0.000006   0.016867 -27.331600  -1.167050   2.256550 -29.462700  -0.001421  -0.001012 -19.622200  -0.001350   0.000442 -10.186200  -2.435210  13.308500 -15.705500  -0.003276   0.005191 -10.459900  -0.007112   0.005373   7.987340   2.884610   8.496400  53.502500  20.126400  32.989000 -25.530500 -11.857600  82.980100 -28.247300  60.613000   7.881010 -32.206700  28.112500  69.766000  33.849200  -0.003204  -0.000799  11.924600   0.000396   0.007298  34.433700   5.530250   8.217540  28.483300   0.026612  -0.035617  19.943200   0.009667  -0.029651  27.808100  -1.850080  -3.503710  31.198500  -0.000277   0.000500  20.778200  -0.000842   0.000512  25.751900  -3.937920  -8.051030  25.925700  -0.005861  -0.012045  17.266600  -0.006497  -0.000328  11.320000  -3.004240 -14.640800  17.555500  -0.001138  -0.001616  11.691900  -0.007452   0.000253  -0.290060  11.657100   2.708700   0.224510   2.488980  11.394900  -4.047370  -2.264470   3.844590   0.000000   0.000000   0.000000   3.228520   8.672230  -6.534840  -2.262350   8.039540  -6.255600  -9.737780  -0.754964   3.470540  -0.000000   0.000000   0.000000
 -0.692527  89.893600  -4.117490  -1.342930 -13.279800  -4.142180   0.239194   7.376020  -0.443166   0.543318  14.749900  -0.929384  -0.039360   3.672640   0.006885  -0.064377   7.447400   9.229780  -4.678010   1.106570   4.028560 -57.787200  26.847200 -32.757000  26.248100 -13.678400 -87.611300  22.918000  41.074600 -18.554400  42.573300  40.944700 -82.437200 -28.080500   0.006514   0.003583  -9.040240   0.000158   0.007971 -31.381600  10.734700 -16.966200 -27.001700   0.017011   0.028532 -18.799500   0.004105   0.022556 -30.471500   4.609220  -7.825200 -46.705900   0.003692   0.018806 -31.106100  -0.000186   0.012038 -28.031000  -1.230700   2.310790 -31.936000  -0.001475  -0.000876 -21.269400  -0.001433   0.000579 -10.562300  -2.508640  13.211800 -16.279100  -0.003207   0.005291 -10.841900  -0.007079   0.005453   8.000690   2.882510   8.493690  53.464000  20.191700  33.001300 -25.529800 -11.831400  82.928300 -28.145600  60.292100   7.797860 -32.212700  28.098700  69.774500  33.745900  -0.003207  -0.000844  11.873000   0.000289   0.007337  30.552300   6.214810  10.438800  25.460700   0.024586  -0.030850  17.821800   0.009704  -0.025872  28.050400  -1.951210  -3.656690  32.793100  -0.000066   0.000660  21.840200  -0.000773   0.000720  26.533100  -4.014270  -7.983250  27.074100  -0.005987  -0.011836  18.031400  -0.006517  -0.000457  11.622600  -3.090470 -14.687900  18.031600  -0.001529  -0.001632  12.009000  -0.007546   0.000288  -0.284353  11.746400   2.710850   0.219147   2.420970  11.413300  -4.044980  -2.286620   3.856020  -0.000000   0.000000  -0.000000   3.241870   8.679170  -6.531550  -2.259450   8.052540  -6.249350  -9.741900  -0.764122   3.485090   0.000000   0.000000   0.000000
 -0.700565  89.894100  -4.095470  -1.355480 -13.278700  -4.165140   0.232790   7.365560  -0.434274   0.529061  14.729100  -0.910452  -0.059204   3.892240   0.007180  -0.101081   7.892130   9.158680  -4.690880   1.114770   4.010880 -57.814300  26.819500 -32.701600  26.209500 -13.678500 -87.638700  22.585000  40.969000 -18.313500  42.670900  40.895600 -82.342000 -27.958100   0.006496   0.003495  -8.979030   0.000155   0.008087 -29.477900  10.534000 -17.785500 -25.478800   0.009247   0.019036 -17.805800   0.000665   0.014223 -31.224400   4.178210  -6.856200 -47.651600   0.003184   0.011173 -31.735900  -0.000403   0.007380 -28.260100  -1.272130   2.364970 -33.522700  -0.001538  -0.000741 -22.326100  -0.001517   0.000736 -10.771300  -2.544970  13.158500 -16.597700  -0.003134   0.005396 -11.054100  -0.007046   0.005531   8.016300   2.880290   8.485050  53.452900  20.254200  32.995200 -25.493600 -11.806700  82.889700 -28.095300  59.951500   7.771250 -32.244800  28.195900  69.844100  33.715400  -0.003210  -0.000886  11.857800   0.000185   0.007370  28.889100   6.474040  11.462000  24.174000   0.012594  -0.016979  16.921000   0.004819  -0.014120  28.201800  -1.974400  -3.670220  33.891200   0.000143   0.000817  22.571500  -0.000694   0.000957  26.914900  -4.044420  -7.922500  27.837800  -0.006113  -0.011593  18.539900  -0.006537  -0.000570  11.833500  -3.143720 -14.676600  18.358000  -0.001914  -0.001634  12.226400  -0.007640   0.000315  -0.275443  11.724600   2.712430   0.217418   2.462520  11.418400  -4.042880  -2.309070   3.864390   0.000000   0.000000  -0.000000   3.256430   8.685050  -6.521230  -2.255000   8.061890  -6.261750  -9.750350  -0.774615   3.497470  -0.000000   0.000000   0.000000
 -0.710212  89.895000  -4.073830  -1.364000 -13.278200  -4.175690   0.225926   7.354320  -0.426557   0.514026  14.706800  -0.893840  -0.079836   4.099900   0.007475  -0.132853   8.313250   8.995640  -4.702170   1.124960   3.999080 -57.847000  26.787000 -32.650200  26.114300 -13.680800 -87.679500  22.276900  40.827200 -18.063400  42.765900  40.886700 -82.316100 -27.895400   0.006478   0.003431  -8.947670   0.000153   0.008203 -29.221000  10.444800 -17.898900 -25.261200   0.002056   0.012358 -17.663800  -0.002048   0.008539 -31.557100   3.944040  -6.357310 -47.786700   0.002646   0.005818 -31.825900  -0.000641   0.004619 -28.291900  -1.289550   2.394550 -34.215000  -0.001601  -0.000609 -22.787200  -0.001603   0.000904 -10.850700  -2.556920  13.102100 -16.716300  -0.003063   0.005503 -11.133100  -0.007014   0.005614   8.030290   2.879070   8.473740  53.461500  20.312700  32.977500 -25.461500 -11.786100  82.876900 -28.072000  59.715800   7.769880 -32.275900  28.296100  69.911500  33.711100  -0.003213  -0.000930  11.855600   0.000083   0.007400  28.470800   6.521650  11.764000  23.848800   0.002052  -0.006502  16.694200  -0.000067  -0.004794  28.273500  -1.977710  -3.672150  34.450700   0.000351   0.000972  22.944200  -0.000615   0.001200  27.065400  -4.049170  -7.868480  28.219000  -0.006241  -0.011325  18.793800  -0.006557  -0.000681  11.941200  -3.166560 -14.638800  18.522000  -0.002295  -0.001636  12.335700  -0.007735   0.000342  -0.267240  11.702800   2.713450   0.215830   2.504100  11.420100  -4.041030  -2.330510   3.868090  -0.000000   0.000000   0.000000   3.271110   8.691270  -6.513670  -2.251600   8.067140  -6.274090  -9.759360  -0.785698   3.505640  -0.000000   0.000000  -0.000000
